<?xml version="1.0" standalone="no"?>
<!DOCTYPE svg PUBLIC "-//W3C//DTD SVG 20010904//EN"
 "http://www.w3.org/TR/2001/REC-SVG-20010904/DTD/svg10.dtd">
<svg version="1.0" xmlns="http://www.w3.org/2000/svg"
 width="376.000000pt" height="46.000000pt" viewBox="0 0 376.000000 46.000000"
 preserveAspectRatio="xMidYMid meet">

<g transform="translate(0.000000,46.000000) scale(0.100000,-0.100000)"
fill="#000000" stroke="none">
<path d="M0 400 l0 -60 96 0 c52 0 104 -5 115 -11 27 -14 41 -53 29 -84 -6
-15 -6 -34 -1 -48 11 -28 -9 -81 -34 -91 -9 -3 -59 -6 -111 -6 l-94 0 0 -50 0
-50 1555 0 1556 0 -17 33 c-9 17 -39 71 -65 120 -27 48 -49 89 -49 92 0 3 23
5 50 5 43 0 50 3 50 20 0 18 -7 20 -70 20 l-70 0 0 -95 c0 -95 0 -95 -25 -95
l-25 0 0 120 0 120 100 0 c87 0 103 -3 120 -20 38 -38 21 -103 -32 -118 l-27
-7 50 -88 c27 -48 47 -92 44 -97 -4 -6 108 -10 304 -10 l311 0 -1 168 -1 167
-56 -118 c-30 -64 -58 -117 -62 -117 -3 0 -21 30 -39 67 l-33 68 -37 -73 -37
-74 -57 120 c-31 65 -57 122 -57 125 0 4 11 7 24 7 20 0 30 -12 55 -66 17 -37
35 -64 38 -60 4 4 21 37 38 73 l30 65 34 -71 c19 -39 37 -71 41 -71 3 0 18 29
34 65 25 58 31 65 57 65 29 0 29 1 29 60 l0 60 -829 0 -829 0 -4 -137 c-4
-151 -11 -173 -61 -203 -42 -26 -86 -25 -128 3 -41 28 -58 71 -58 155 -1 60 0
62 24 62 24 0 25 -2 25 -69 0 -54 4 -74 21 -95 28 -36 80 -36 108 0 19 24 21
40 21 155 l0 129 -1025 0 -1025 0 0 -60z m480 -297 c0 -2 -12 -3 -27 -1 -23 2
-33 14 -58 66 l-31 62 -32 -65 c-26 -54 -36 -65 -57 -65 -14 0 -25 3 -25 8 0
4 26 60 57 126 l58 118 57 -122 c32 -67 58 -124 58 -127z m237 211 c19 -19 24
-31 19 -52 -8 -32 -8 -38 0 -79 5 -26 1 -37 -19 -57 -24 -24 -32 -26 -122 -26
l-95 0 0 120 0 120 95 0 c90 0 98 -2 122 -26z m101 -15 l30 -40 28 40 c22 30
36 41 57 41 15 0 27 -3 27 -6 0 -3 -20 -32 -45 -64 l-45 -58 0 -101 0 -101
-25 0 -25 0 0 104 c0 84 -3 108 -18 127 -10 13 -31 41 -46 62 l-28 37 30 0
c24 0 37 -9 60 -41z m732 16 c0 -24 -2 -24 -82 -27 -66 -2 -83 -6 -83 -18 0
-11 17 -16 71 -20 52 -4 78 -10 93 -24 28 -25 27 -73 -1 -103 -21 -22 -27 -23
-180 -23 l-158 0 0 25 0 25 156 0 155 0 -3 23 c-3 20 -10 22 -76 27 -62 4 -77
9 -93 29 -26 31 -24 57 6 86 22 23 32 25 110 25 84 0 85 0 85 -25z m241 -11
c41 -39 48 -87 19 -141 l-22 -42 31 -56 31 -55 -24 0 c-18 0 -31 11 -50 45
-24 40 -31 45 -62 45 -96 0 -153 94 -109 180 34 65 130 78 186 24z m399 -84
l0 -120 -25 0 -25 0 0 120 0 120 25 0 25 0 0 -120z m302 82 c28 -28 33 -39 33
-82 0 -43 -5 -54 -33 -82 -32 -33 -33 -33 -142 -36 l-110 -4 0 122 0 122 110
-4 c109 -3 110 -3 142 -36z m368 32 c0 -3 -5 -14 -10 -25 -9 -17 -22 -19 -107
-19 -86 0 -99 -3 -120 -22 -29 -27 -29 -65 -1 -95 19 -20 31 -23 95 -23 40 0
73 3 73 6 0 3 -5 14 -10 25 -8 15 -22 19 -60 19 -47 0 -50 2 -50 25 0 24 3 25
60 25 67 0 58 8 129 -122 l42 -78 -26 0 c-17 0 -29 8 -37 25 -11 24 -15 25
-103 25 -79 0 -97 3 -126 23 -48 32 -67 89 -46 139 26 62 64 78 190 78 59 0
107 -3 107 -6z m494 -33 c26 -27 31 -39 31 -81 0 -42 -5 -54 -30 -80 -100 -99
-259 20 -188 141 39 66 131 75 187 20z"/>
<path d="M550 220 l0 -71 68 3 c59 3 67 5 67 23 0 16 -8 21 -37 23 -32 3 -38
7 -38 27 0 20 6 24 38 27 25 2 37 8 37 18 0 12 -15 16 -67 18 l-68 3 0 -71z"/>
<path d="M1666 269 c-46 -36 -23 -119 34 -119 19 0 19 1 -1 35 l-21 35 29 0
c18 0 33 -8 42 -22 l14 -22 8 22 c15 41 -20 92 -64 92 -8 0 -26 -9 -41 -21z"/>
<path d="M2290 220 l0 -70 75 0 c86 0 115 18 115 70 0 52 -29 70 -115 70 l-75
0 0 -70z"/>
<path d="M3225 265 c-14 -13 -25 -33 -25 -45 0 -27 43 -70 70 -70 27 0 70 43
70 70 0 27 -43 70 -70 70 -11 0 -32 -11 -45 -25z"/>
<path d="M50 220 l0 -70 69 0 c72 0 86 6 75 34 -4 11 -19 16 -45 16 -35 0 -39
3 -39 24 0 22 5 25 43 28 29 2 42 8 42 18 0 12 -16 16 -72 18 l-73 3 0 -71z"/>
</g>
</svg>
